<!-- Generated by IcoMoon.io -->
<svg version="1.1" xmlns="http://www.w3.org/2000/svg" width="22" height="32" viewBox="0 0 22 32">
<title>G</title>
<path d="M19.438 21.016q-1.156 1.656-3.227 2.477t-4.82 0.82q-2.781 0-4.938-1.305t-3.336-3.711-1.211-5.578v-1.984q0-5.141 2.398-7.969t6.742-2.828q3.563 0 5.734 1.82t2.656 5.164h-3q-0.844-4.516-5.375-4.516-3.016 0-4.57 2.117t-1.57 6.133v1.859q0 3.828 1.75 6.086t4.734 2.258q1.688 0 2.953-0.375t2.094-1.266v-5.109h-5.266v-2.438h8.25v8.344z"></path>
</svg>
