<!-- Generated by IcoMoon.io -->
<svg version="1.1" xmlns="http://www.w3.org/2000/svg" width="32" height="32" viewBox="0 0 32 32">
<title>G</title>
<path d="M28 27.487q-1.583 2.267-4.417 3.39t-6.599 1.123q-3.808 0-6.759-1.786t-4.567-5.080-1.658-7.636v-2.717q0-7.037 3.283-10.909t9.23-3.872q4.877 0 7.85 2.492t3.636 7.070h-4.107q-1.155-6.182-7.358-6.182-4.128 0-6.257 2.898t-2.15 8.396v2.545q0 5.241 2.396 8.332t6.481 3.091q2.31 0 4.043-0.513t2.866-1.733v-6.995h-7.209v-3.337h11.294v11.422z"></path>
</svg>
