<!-- Generated by IcoMoon.io -->
<svg version="1.1" xmlns="http://www.w3.org/2000/svg" width="22" height="32" viewBox="0 0 22 32">
<title>O</title>
<path d="M20.141 13.359q0 3.344-1.125 5.836t-3.188 3.805-4.813 1.313q-2.688 0-4.766-1.32t-3.227-3.766-1.18-5.664v-1.641q0-3.281 1.141-5.797t3.227-3.852 4.773-1.336q2.734 0 4.82 1.32t3.211 3.828 1.125 5.836v1.438zM17.156 11.891q0-4.047-1.625-6.211t-4.547-2.164q-2.844 0-4.477 2.164t-1.68 6.008v1.672q0 3.922 1.648 6.164t4.539 2.242q2.906 0 4.5-2.117t1.641-6.070v-1.688z"></path>
</svg>
