<!-- Generated by IcoMoon.io -->
<svg version="1.1" xmlns="http://www.w3.org/2000/svg" width="32" height="32" viewBox="0 0 32 32">
<title>Q</title>
<path d="M26.843 14.774q0 3.921-1.245 6.755t-3.494 4.432l4.832 3.791-2.434 2.249-5.705-4.534q-1.338 0.334-2.825 0.334-3.196 0-5.668-1.57t-3.837-4.479-1.403-6.736v-1.951q0-3.902 1.357-6.894t3.837-4.581 5.677-1.589q3.271 0 5.751 1.58t3.819 4.544 1.338 6.922v1.728zM23.275 13.027q0-4.776-1.905-7.368t-5.436-2.592q-3.364 0-5.305 2.574t-1.998 7.145v1.988q0 4.646 1.942 7.322t5.398 2.676 5.352-2.518 1.951-7.22v-2.007z"></path>
</svg>
