<!-- Generated by IcoMoon.io -->
<svg version="1.1" xmlns="http://www.w3.org/2000/svg" width="32" height="32" viewBox="0 0 32 32">
<title>S</title>
<path d="M15.765 17.69q-5.283-1.519-7.69-3.733t-2.406-5.465q0-3.679 2.941-6.086t7.647-2.406q3.209 0 5.722 1.241t3.893 3.422 1.38 4.77h-4.128q0-2.824-1.797-4.439t-5.070-1.615q-3.037 0-4.738 1.337t-1.701 3.711q0 1.904 1.615 3.219t5.497 2.406 6.075 2.406 3.251 3.070 1.059 4.128q0 3.786-2.952 6.064t-7.893 2.278q-3.209 0-5.989-1.23t-4.289-3.369-1.508-4.856h4.128q0 2.824 2.086 4.46t5.572 1.636q3.251 0 4.984-1.326t1.733-3.615-1.604-3.54-5.818-2.471z"></path>
</svg>
