<!-- Generated by IcoMoon.io -->
<svg version="1.1" xmlns="http://www.w3.org/2000/svg" width="32" height="32" viewBox="0 0 32 32">
<title>uni0412</title>
<path d="M5.11 32v-32h10.462q5.209 0 7.835 2.154t2.626 6.374q0 2.242-1.275 3.967t-3.473 2.67q2.593 0.725 4.099 2.758t1.506 4.846q0 4.308-2.791 6.769t-7.89 2.462h-11.099zM9.33 17.033v11.516h6.967q2.945 0 4.648-1.527t1.703-4.209q0-5.78-6.286-5.78h-7.033zM9.33 13.648h6.374q2.769 0 4.429-1.385t1.659-3.758q0-2.637-1.538-3.835t-4.681-1.198h-6.242v10.176z"></path>
</svg>
