<!-- Generated by IcoMoon.io -->
<svg version="1.1" xmlns="http://www.w3.org/2000/svg" width="19" height="32" viewBox="0 0 19 32">
<title>uni0417</title>
<path d="M14.313 7.359q0-1.813-1.32-2.883t-3.711-1.070q-2 0-3.352 1.102t-1.352 2.727h-3q0-1.813 0.992-3.25t2.773-2.242 3.938-0.805q3.813 0 5.922 1.711t2.109 4.758q0 1.578-0.969 2.875t-2.703 2.047q4.016 1.344 4.016 5.328 0 3.063-2.281 4.859t-6.094 1.797q-2.266 0-4.117-0.805t-2.883-2.289-1.031-3.531h3q0 1.797 1.422 2.992t3.609 1.195q2.453 0 3.914-1.141t1.461-3.016q0-4-4.953-4.078h-2.813v-2.469h2.797q2.281-0.047 3.453-1.031t1.172-2.781z"></path>
</svg>
