<!-- Generated by IcoMoon.io -->
<svg version="1.1" xmlns="http://www.w3.org/2000/svg" width="32" height="32" viewBox="0 0 32 32">
<title>uni0417</title>
<path d="M22.652 8.791q0-2.481-1.808-3.947t-5.080-1.465q-2.738 0-4.588 1.508t-1.85 3.733h-4.107q0-2.481 1.358-4.449t3.797-3.070 5.39-1.102q5.219 0 8.107 2.342t2.888 6.513q0 2.16-1.326 3.936t-3.701 2.802q5.497 1.84 5.497 7.294 0 4.192-3.123 6.652t-8.342 2.46q-3.102 0-5.636-1.102t-3.947-3.134-1.412-4.834h4.107q0 2.46 1.947 4.096t4.941 1.636q3.358 0 5.358-1.561t2-4.128q0-5.476-6.781-5.583h-3.85v-3.38h3.829q3.123-0.064 4.727-1.412t1.604-3.807z"></path>
</svg>
