<!-- Generated by IcoMoon.io -->
<svg version="1.1" xmlns="http://www.w3.org/2000/svg" width="32" height="32" viewBox="0 0 32 32">
<title>uni041E</title>
<path d="M28.524 17.005q0 4.578-1.54 7.989t-4.364 5.209-6.588 1.797q-3.679 0-6.524-1.808t-4.417-5.155-1.615-7.754v-2.246q0-4.492 1.561-7.936t4.417-5.273 6.535-1.829q3.743 0 6.599 1.808t4.396 5.241 1.54 7.989v1.968zM24.439 14.995q0-5.54-2.225-8.503t-6.225-2.963q-3.893 0-6.128 2.963t-2.299 8.225v2.289q0 5.369 2.257 8.438t6.214 3.070q3.979 0 6.16-2.898t2.246-8.31v-2.31z"></path>
</svg>
