<!-- Generated by IcoMoon.io -->
<svg version="1.1" xmlns="http://www.w3.org/2000/svg" width="32" height="32" viewBox="0 0 32 32">
<title>uni0424</title>
<path d="M17.888 4.183h0.629q3.35 0.020 6.112 1.563t4.294 4.254 1.533 6.061q0 3.371-1.543 6.112t-4.264 4.274-6.051 1.574h-0.711v3.98h-3.777v-3.98h-0.569q-3.391 0-6.162-1.543t-4.305-4.264-1.533-6.112 1.533-6.112 4.305-4.264 6.162-1.543h0.569v-4.183h3.777v4.183zM13.543 7.249q-3.817 0-6.041 2.345t-2.223 6.508q0 4.183 2.213 6.508t6.091 2.325h0.528v-17.685h-0.569zM17.888 7.249v17.685h0.569q3.878 0 6.061-2.386t2.183-6.487q0-4.061-2.183-6.437t-6.142-2.376h-0.487z"></path>
</svg>
