<!-- Generated by IcoMoon.io -->
<svg version="1.1" xmlns="http://www.w3.org/2000/svg" width="25" height="32" viewBox="0 0 25 32">
<title>uni0424</title>
<path d="M13.875 3.531h0.484q2.578 0.016 4.703 1.203t3.305 3.273 1.18 4.664q0 2.594-1.188 4.703t-3.281 3.289-4.656 1.211h-0.547v3.063h-2.906v-3.063h-0.438q-2.609 0-4.742-1.188t-3.313-3.281-1.18-4.703 1.18-4.703 3.313-3.281 4.742-1.188h0.438v-3.219h2.906v3.219zM10.531 5.891q-2.938 0-4.648 1.805t-1.711 5.008q0 3.219 1.703 5.008t4.688 1.789h0.406v-13.609h-0.438zM13.875 5.891v13.609h0.438q2.984 0 4.664-1.836t1.68-4.992q0-3.125-1.68-4.953t-4.727-1.828h-0.375z"></path>
</svg>
