<!-- Generated by IcoMoon.io -->
<svg version="1.1" xmlns="http://www.w3.org/2000/svg" width="32" height="32" viewBox="0 0 32 32">
<title>uni042D</title>
<path d="M8.139 21.69q0.599 3.85 2.428 5.401t5.251 1.551q3.701 0 5.85-2.888t2.192-8.021h-12.257v-3.38h12.257q0-5.070-2.214-8.021t-6.192-2.952q-3.209 0-4.995 1.668t-2.321 5.39h-4.128q0.492-4.898 3.487-7.668t7.957-2.77q3.765 0 6.62 1.786t4.385 5.091 1.529 7.604v3.102q0 4.299-1.519 7.594t-4.289 5.059-6.364 1.765q-5.091 0-8.16-2.684t-3.647-7.626h4.128z"></path>
</svg>
