<!-- Generated by IcoMoon.io -->
<svg version="1.1" xmlns="http://www.w3.org/2000/svg" width="32" height="32" viewBox="0 0 32 32">
<title>uni042E</title>
<path d="M32 16.957q0 4.359-1.467 7.608t-4.155 4.96-6.274 1.711q-3.381 0-6.060-1.63t-4.196-4.665-1.68-7.088h-4.257v12.975h-3.911v-29.658h3.911v13.607h4.237q0.061-4.196 1.528-7.363t4.176-4.909 6.213-1.742q3.565 0 6.284 1.721t4.186 4.99 1.467 7.608v1.874zM28.11 15.043q0-5.276-2.118-8.097t-5.927-2.821q-3.707 0-5.836 2.821t-2.19 7.832v2.179q0 5.113 2.149 8.036t5.917 2.923q3.789 0 5.866-2.76t2.139-7.913v-2.2z"></path>
</svg>
