<svg version="1.1" xmlns="http://www.w3.org/2000/svg" width="21.78066666666667" height="32"  viewBox="0 0 21.78066666666667 32"><path d="M0.001999999999996227 32V0H10.462999999999997Q15.671999999999997 0 18.298 2.154T20.924 8.527999999999999Q20.924 10.77 19.649 12.495T16.176000000000002 15.165Q18.769000000000002 15.889999999999999 20.275000000000002 17.923T21.78 22.769Q21.78 27.076999999999998 18.989 29.537999999999997T11.099 31.999999999999996H0ZM4.221999999999996 17.033V28.549H11.188999999999997Q14.133999999999997 28.549 15.836999999999996 27.022T17.539999999999996 22.813Q17.539999999999996 17.032999999999998 11.253999999999998 17.032999999999998H4.2209999999999965ZM4.221999999999996 13.649H10.595999999999997Q13.364999999999995 13.649 15.024999999999999 12.264T16.683999999999997 8.506Q16.683999999999997 5.869 15.145999999999997 4.671T10.464999999999996 3.4730000000000003H4.222999999999995V13.649000000000001Z"></path></svg>