<svg version="1.1" xmlns="http://www.w3.org/2000/svg" width="24.000000000000004" height="32"  viewBox="0 0 24.000000000000004 32"><path d="M24.000000000000004 27.487Q22.417000000000005 29.753999999999998 19.583000000000002 30.877T12.984 32Q9.176 32 6.225 30.214T1.658 25.134 0 17.498V14.781Q0 7.7440000000000015 3.283 3.8720000000000003T12.513 5.921189464667501e-16Q17.39 5.921189464667501e-16 20.363000000000003 2.4920000000000004T23.999000000000002 9.562000000000001H19.892000000000003Q18.737000000000002 3.3800000000000012 12.534 3.3800000000000012 8.406 3.3800000000000012 6.277000000000001 6.278000000000001T4.127000000000001 14.674000000000001V17.219Q4.127000000000001 22.46 6.5230000000000015 25.551000000000002T13.004 28.642000000000003Q15.313999999999998 28.642000000000003 17.047 28.129T19.913 26.396V19.401H12.703999999999999V16.064H23.998V27.486Z"></path></svg>