<svg version="1.1" xmlns="http://www.w3.org/2000/svg" width="25.048000000000002" height="32.001666666666665"  viewBox="0 0 25.048000000000002 32.001666666666665"><path d="M25.048000000000002 17.005999999999997Q25.048000000000002 21.583999999999996 23.508000000000003 24.994999999999997T19.144000000000002 30.203999999999997 12.556000000000001 32.001Q8.877 32.001 6.032 30.192999999999998T1.6150000000000002 25.037999999999997 0 17.284V15.038Q0 10.546000000000001 1.561 7.101999999999999T5.978 1.829 12.513 0Q16.256 0 19.112000000000002 1.808T23.508000000000003 7.0489999999999995 25.048000000000002 15.038V17.006ZM20.963 14.995999999999999Q20.963 9.455999999999998 18.738 6.492999999999998T12.513 3.5299999999999976Q8.620000000000001 3.5299999999999976 6.385 6.492999999999998T4.086 14.717999999999998V17.006999999999998Q4.086 22.375999999999998 6.343 25.445T12.557000000000002 28.515Q16.536 28.515 18.717000000000002 25.617T20.963 17.307000000000002V14.997000000000003Z"></path></svg>