<svg version="1.1" xmlns="http://www.w3.org/2000/svg" width="21.872" height="32"  viewBox="0 0 21.872 32"><path d="M21.779000000000003 14.773000000000003Q21.779000000000003 18.694000000000003 20.534 21.528000000000002T17.04 25.96L21.872 29.751 19.438000000000002 32 13.732999999999999 27.466Q12.394999999999998 27.8 10.908 27.8 7.712 27.8 5.24 26.23T1.4030000000000005 21.751 0 15.015000000000002V13.064000000000002Q0 9.162 1.3570000000000002 6.170000000000002T5.194000000000001 1.5890000000000009 10.871 8.881784197001252e-16Q14.142000000000001 8.881784197001252e-16 16.622 1.580000000000001T20.441000000000003 6.1240000000000006 21.779000000000003 13.046000000000001V14.774000000000001ZM18.211 13.026000000000003Q18.211 8.250000000000004 16.305999999999997 5.658000000000003T10.87 3.0660000000000025Q7.5059999999999985 3.0660000000000025 5.5649999999999995 5.640000000000002T3.567 12.785000000000002V14.773000000000001Q3.567 19.419 5.509 22.095T10.907 24.771 16.259 22.253 18.21 15.033000000000003V13.026000000000003Z"></path></svg>