<svg version="1.1" xmlns="http://www.w3.org/2000/svg" width="22" height="32"  viewBox="0 0 22 32"><path d="M20.016 13.359q0 3.297-1.047 5.68t-2.938 3.727l4.063 3.188-2.047 1.891-4.797-3.813q-1.125 0.281-2.375 0.281-2.688 0-4.766-1.32t-3.227-3.766-1.18-5.664v-1.641q0-3.281 1.141-5.797t3.227-3.852 4.773-1.336q2.75 0 4.836 1.328t3.211 3.82 1.125 5.82v1.453zM17.016 11.891q0-4.016-1.602-6.195t-4.57-2.18q-2.828 0-4.461 2.164t-1.68 6.008v1.672q0 3.906 1.633 6.156t4.539 2.25 4.5-2.117 1.641-6.070v-1.688z"></path></svg>