<svg version="1.1" xmlns="http://www.w3.org/2000/svg" width="22.631666666666668" height="31.998666666666665"  viewBox="0 0 22.631666666666668 31.998666666666665"><path d="M11.081666666666667 17.69066666666667Q5.798666666666667 16.17166666666667 3.3916666666666666 13.957666666666666T0.985666666666666 8.492666666666667Q0.985666666666666 4.813666666666666 3.9266666666666667 2.4066666666666667T11.573666666666664 0.0006666666666665932Q14.782666666666664 0.0006666666666665932 17.295666666666666 1.2416666666666667T21.188666666666666 4.663666666666666 22.568666666666665 9.433666666666666H18.440666666666665Q18.440666666666665 6.609666666666666 16.643666666666665 4.9946666666666655T11.573666666666664 3.3796666666666657Q8.536666666666665 3.3796666666666657 6.835666666666666 4.716666666666665T5.134666666666665 8.427666666666665Q5.134666666666665 10.331666666666665 6.749666666666665 11.646666666666665T12.246666666666666 14.052666666666665 18.321666666666665 16.458666666666666 21.572666666666667 19.528666666666666 22.631666666666668 23.656666666666666Q22.631666666666668 27.442666666666668 19.679666666666666 29.720666666666666T11.786666666666665 31.998666666666665Q8.577666666666666 31.998666666666665 5.797666666666665 30.768666666666665T1.5086666666666657 27.399666666666665 0.0006666666666657051 22.543666666666667H4.128666666666665Q4.128666666666665 25.367666666666665 6.214666666666665 27.003666666666668T11.786666666666665 28.639666666666667Q15.037666666666667 28.639666666666667 16.770666666666667 27.313666666666666T18.503666666666668 23.698666666666668 16.89966666666667 20.15866666666667 11.08166666666667 17.68766666666667Z"></path></svg>