<svg version="1.1" xmlns="http://www.w3.org/2000/svg" width="19" height="32"  viewBox="0 0 19 32"><path d="M9.344 13.859q-3.859-1.109-5.617-2.727t-1.758-3.992q0-2.688 2.148-4.445t5.586-1.758q2.344 0 4.18 0.906t2.844 2.5 1.008 3.484h-3.016q0-2.063-1.313-3.242t-3.703-1.18q-2.219 0-3.461 0.977t-1.242 2.711q0 1.391 1.18 2.352t4.016 1.758 4.438 1.758 2.375 2.242 0.773 3.016q0 2.766-2.156 4.43t-5.766 1.664q-2.344 0-4.375-0.898t-3.133-2.461-1.102-3.547h3.016q0 2.063 1.523 3.258t4.070 1.195q2.375 0 3.641-0.969t1.266-2.641-1.172-2.586-4.25-1.805z"></path></svg>