<svg version="1.1" xmlns="http://www.w3.org/2000/svg" width="21.780000000000005" height="32"  viewBox="0 0 21.780000000000005 32"><path d="M0 32V0H10.462Q15.671 0 18.297 2.154T20.923000000000002 8.527999999999999Q20.923000000000002 10.77 19.648000000000003 12.495T16.175000000000004 15.165Q18.768000000000004 15.889999999999999 20.274000000000004 17.923T21.780000000000005 22.769Q21.780000000000005 27.076999999999998 18.989000000000004 29.537999999999997T11.099000000000004 31.999999999999996H2.6645352591003757e-15ZM4.22 17.033V28.549H11.187000000000001Q14.132000000000001 28.549 15.835 27.022T17.538 22.813Q17.538 17.032999999999998 11.252000000000002 17.032999999999998H4.219ZM4.22 13.648H10.594000000000001Q13.363 13.648 15.023000000000003 12.263T16.682000000000002 8.504999999999999Q16.682000000000002 5.8679999999999986 15.144000000000002 4.669999999999999T10.463000000000001 3.471999999999999H4.220999999999999V13.648Z"></path></svg>