<svg version="1.1" xmlns="http://www.w3.org/2000/svg" width="22.46066666666667" height="31.999"  viewBox="0 0 22.46066666666667 31.999"><path d="M17.88366666666667 8.792Q17.88366666666667 6.310999999999999 16.07566666666667 4.844999999999999T10.995666666666672 3.379999999999999Q8.257666666666672 3.379999999999999 6.407666666666672 4.887999999999999T4.557666666666672 8.621H0.4506666666666721Q0.4506666666666721 6.14 1.8086666666666718 4.172T5.605666666666672 1.102 10.995666666666672 0Q16.214666666666673 0 19.10266666666667 2.3419999999999996T21.99066666666667 8.855Q21.99066666666667 11.015 20.66466666666667 12.791T16.96366666666667 15.593Q22.46066666666667 17.433 22.46066666666667 22.886999999999997 22.46066666666667 27.078999999999997 19.337666666666667 29.538999999999998T10.995666666666668 31.999Q7.893666666666667 31.999 5.359666666666667 30.897T1.4126666666666665 27.762999999999998 0.0006666666666665932 22.929H4.107666666666668Q4.107666666666668 25.389 6.054666666666667 27.025T10.995666666666665 28.660999999999998Q14.353666666666665 28.660999999999998 16.353666666666665 27.099999999999998T18.353666666666665 22.971999999999998Q18.353666666666665 17.496 11.572666666666667 17.388999999999996H7.722666666666668V14.008999999999999H11.551666666666666Q14.674666666666667 13.944999999999999 16.278666666666666 12.597T17.882666666666665 8.79Z"></path></svg>