<svg version="1.1" xmlns="http://www.w3.org/2000/svg" width="28.915666666666667" height="32.001000000000005"  viewBox="0 0 28.915666666666667 32.001000000000005"><path d="M16.34766666666666 4.182999999999996H16.976666666666663Q20.326666666666664 4.202999999999996 23.088666666666665 5.745999999999996T27.382666666666665 9.999999999999996 28.915666666666667 16.060999999999996Q28.915666666666667 19.431999999999995 27.372666666666667 22.173T23.108666666666668 26.447 17.057666666666666 28.021H16.346666666666668V32.001000000000005H12.569666666666665V28.021H12.000666666666666Q8.609666666666666 28.021 5.838666666666667 26.478T1.5336666666666665 22.214000000000002 0.0006666666666665932 16.102 1.5336666666666665 9.99 5.838666666666667 5.726 12.000666666666666 4.183H12.569666666666665V0H16.346666666666668V4.183ZM12.002666666666657 7.248999999999996Q8.185666666666657 7.248999999999996 5.961666666666657 9.593999999999996T3.7386666666666577 16.101999999999997Q3.7386666666666577 20.284999999999997 5.951666666666657 22.609999999999996T12.042666666666657 24.934999999999995H12.570666666666657V7.2499999999999964H12.001666666666656ZM16.34766666666666 7.248999999999996V24.933999999999994H16.91666666666666Q20.79466666666666 24.933999999999994 22.97766666666666 22.547999999999995T25.16066666666666 16.060999999999996Q25.16066666666666 11.999999999999996 22.97766666666666 9.623999999999995T16.83566666666666 7.247999999999996H16.348666666666663Z"></path></svg>