<svg version="1.1" xmlns="http://www.w3.org/2000/svg" width="23.97966666666666" height="32.001"  viewBox="0 0 23.97966666666666 32.001"><path d="M4.129999999999994 21.690000000000005Q4.728999999999994 25.540000000000006 6.5579999999999945 27.091000000000005T11.808999999999996 28.642000000000003Q15.509999999999996 28.642000000000003 17.658999999999992 25.754T19.850999999999992 17.733H7.593999999999994V14.353000000000002H19.850999999999992Q19.850999999999992 9.283000000000001 17.636999999999993 6.332000000000001T11.444999999999995 3.380000000000001Q8.235999999999995 3.380000000000001 6.449999999999994 5.048000000000001T4.128999999999994 10.438H0.0009999999999941167Q0.4929999999999941 5.540000000000001 3.487999999999994 2.7700000000000005T11.444999999999995 2.960594732333748e-16Q15.209999999999996 2.960594732333748e-16 18.064999999999998 1.7860000000000003T22.449999999999996 6.877000000000001 23.979 14.481000000000002V17.583000000000002Q23.979 21.882 22.46 25.177000000000003T18.171 30.236000000000004 11.807 32.001Q6.715999999999999 32.001 3.6470000000000002 29.317T0 21.691H4.128Z"></path></svg>