<svg version="1.1" xmlns="http://www.w3.org/2000/svg" width="29" height="32"  viewBox="0 0 29 32"><path d="M27.406 13.359q0 3.344-1.125 5.836t-3.188 3.805-4.813 1.313q-2.594 0-4.648-1.25t-3.219-3.578-1.289-5.438h-3.266v9.953h-3v-22.75h3v10.438h3.25q0.047-3.219 1.172-5.648t3.203-3.766 4.766-1.336q2.734 0 4.82 1.32t3.211 3.828 1.125 5.836v1.438zM24.422 11.891q0-4.047-1.625-6.211t-4.547-2.164q-2.844 0-4.477 2.164t-1.68 6.008v1.672q0 3.922 1.648 6.164t4.539 2.242q2.906 0 4.5-2.117t1.641-6.070v-1.688z"></path></svg>