<svg version="1.1" xmlns="http://www.w3.org/2000/svg" width="32.002" height="30.473"  viewBox="0 0 32.002 30.473"><path d="M32 16.194Q32 20.553 30.533 23.802T26.378 28.762 20.104 30.473Q16.723 30.473 14.043999999999999 28.843T9.847999999999999 24.178 8.168 17.09H3.911V30.065H0V0.4070000000000009H3.911V14.014H8.148Q8.209 9.818000000000001 9.676 6.651T13.852 1.742 20.065 0Q23.630000000000003 0 26.349 1.721T30.535 6.711 32.002 14.318999999999999V16.192999999999998ZM28.11 14.279999999999998Q28.11 9.003999999999998 25.992 6.182999999999999T20.065 3.361999999999999Q16.358 3.361999999999999 14.229 6.182999999999999T12.039 14.014999999999997V16.193999999999996Q12.039 21.306999999999995 14.188 24.229999999999993T20.105000000000004 27.152999999999995Q23.894000000000005 27.152999999999995 25.971000000000004 24.392999999999997T28.110000000000003 16.479999999999997V14.279999999999998Z"></path></svg>